HIERARCHY
ROOT Hips
{
	OFFSET 0.000000 87.230942 0.000000
	CHANNELS 6 Xposition Yposition Zposition Xrotation Yrotation Zrotation
	JOINT Pelvis
	{
		OFFSET 0.000000 0.000000 0.000000
		CHANNELS 3 Xrotation Yrotation Zrotation
		JOINT LeftUpLeg
		{
			OFFSET 12.017000 -9.376404 -2.439400
			CHANNELS 3 Xrotation Yrotation Zrotation
			JOINT LeftLeg
			{
				OFFSET -0.007312 -32.846973 2.110600
				CHANNELS 3 Xrotation Yrotation Zrotation
				JOINT LeftFoot
				{
					OFFSET 0.007312 -32.065170 -0.570400
					CHANNELS 3 Xrotation Yrotation Zrotation
					JOINT LeftToeBase
					{
						OFFSET 0.728300 -11.045900 13.180700
						CHANNELS 3 Xrotation Yrotation Zrotation
						End Site
						{
							OFFSET 0.000000 17.212589 0.000000
						}
					}
				}
				JOINT LeftPantLeg
				{
					OFFSET 0.002788 -16.709013 -3.143600
					CHANNELS 3 Xrotation Yrotation Zrotation
					End Site
					{
						OFFSET -0.605125 24.528742 0.000000
					}
				}
			}
			JOINT Left_Butt
			{
				OFFSET -6.630234 1.326584 -3.183700
				CHANNELS 3 Xrotation Yrotation Zrotation
				End Site
				{
					OFFSET -0.498041 20.188049 0.000000
				}
			}
		}
		JOINT RightUpLeg
		{
			OFFSET -11.717000 -9.376404 -2.439400
			CHANNELS 3 Xrotation Yrotation Zrotation
			JOINT RightLeg
			{
				OFFSET -0.003241 -32.846912 2.110600
				CHANNELS 3 Xrotation Yrotation Zrotation
				JOINT RightFoot
				{
					OFFSET 0.003241 -32.065136 -0.570500
					CHANNELS 3 Xrotation Yrotation Zrotation
					JOINT RightToeBase
					{
						OFFSET -0.728300 -11.045901 13.180700
						CHANNELS 3 Xrotation Yrotation Zrotation
						End Site
						{
							OFFSET 0.000000 17.212593 0.000000
						}
					}
				}
				JOINT RightPantLeg
				{
					OFFSET 0.008142 -16.708982 -3.143700
					CHANNELS 3 Xrotation Yrotation Zrotation
					End Site
					{
						OFFSET 0.605088 24.528715 0.000000
					}
				}
			}
			JOINT Right_Butt
			{
				OFFSET 6.630732 1.326584 -3.183700
				CHANNELS 3 Xrotation Yrotation Zrotation
				End Site
				{
					OFFSET 0.498015 20.188240 0.000000
				}
			}
		}
	}
	JOINT Spine
	{
		OFFSET -0.062400 7.848404 3.918300
		CHANNELS 3 Xrotation Yrotation Zrotation
		JOINT Spine1
		{
			OFFSET -0.072800 11.422302 0.713400
			CHANNELS 3 Xrotation Yrotation Zrotation
			JOINT Spine2
			{
				OFFSET -0.083200 13.054001 -1.931600
				CHANNELS 3 Xrotation Yrotation Zrotation
				JOINT Neck
				{
					OFFSET -0.092200 14.121796 -5.138800
					CHANNELS 3 Xrotation Yrotation Zrotation
					JOINT Head
					{
						OFFSET 0.000200 10.447403 -0.842000
						CHANNELS 3 Xrotation Yrotation Zrotation
						JOINT Visor
						{
							OFFSET 0.457100 25.671204 16.550400
							CHANNELS 3 Xrotation Yrotation Zrotation
							End Site
							{
								OFFSET 0.000000 26.061493 0.000000
							}
						}
						JOINT HairMidA
						{
							OFFSET 0.459400 31.585403 8.437400
							CHANNELS 3 Xrotation Yrotation Zrotation
							End Site
							{
								OFFSET 0.000000 26.061493 0.000000
							}
						}
						JOINT HairMidB
						{
							OFFSET 0.464000 33.309204 -8.389700
							CHANNELS 3 Xrotation Yrotation Zrotation
							End Site
							{
								OFFSET 0.000000 26.061493 0.000000
							}
						}
						JOINT HairMidC
						{
							OFFSET 0.466600 27.991196 -17.375099
							CHANNELS 3 Xrotation Yrotation Zrotation
							End Site
							{
								OFFSET 0.000000 26.061493 0.000000
							}
						}
						JOINT HairMidD
						{
							OFFSET 0.467700 17.888092 -21.169500
							CHANNELS 3 Xrotation Yrotation Zrotation
							End Site
							{
								OFFSET 0.000000 26.061493 0.000000
							}
						}
						JOINT HairMidE
						{
							OFFSET 5.325700 3.514603 -14.369699
							CHANNELS 3 Xrotation Yrotation Zrotation
							End Site
							{
								OFFSET 0.000000 26.061493 0.000000
							}
						}
						JOINT HairMidF
						{
							OFFSET -4.394100 3.514603 -14.372400
							CHANNELS 3 Xrotation Yrotation Zrotation
							End Site
							{
								OFFSET 0.000000 26.061493 0.000000
							}
						}
						JOINT HairLeftA
						{
							OFFSET 15.319900 25.746506 2.623300
							CHANNELS 3 Xrotation Yrotation Zrotation
							End Site
							{
								OFFSET 0.000000 26.061493 0.000000
							}
						}
						JOINT HairLeftB
						{
							OFFSET 12.619500 29.289398 -8.731499
							CHANNELS 3 Xrotation Yrotation Zrotation
							End Site
							{
								OFFSET 0.000000 26.061493 0.000000
							}
						}
						JOINT HairLeftC
						{
							OFFSET 15.714800 15.959900 2.909800
							CHANNELS 3 Xrotation Yrotation Zrotation
							End Site
							{
								OFFSET 0.000000 26.061493 0.000000
							}
						}
						JOINT HairLeftD
						{
							OFFSET 16.101700 18.437408 -7.553200
							CHANNELS 3 Xrotation Yrotation Zrotation
							End Site
							{
								OFFSET 0.000000 26.061493 0.000000
							}
						}
						JOINT HairLeftE
						{
							OFFSET 9.731900 17.915009 -18.316799
							CHANNELS 3 Xrotation Yrotation Zrotation
							End Site
							{
								OFFSET 0.000000 26.061493 0.000000
							}
						}
						JOINT HairLeftF
						{
							OFFSET 11.204300 4.953598 -9.668100
							CHANNELS 3 Xrotation Yrotation Zrotation
							End Site
							{
								OFFSET 0.000000 26.061493 0.000000
							}
						}
						JOINT HairRightA
						{
							OFFSET -14.397900 25.746307 2.615100
							CHANNELS 3 Xrotation Yrotation Zrotation
							End Site
							{
								OFFSET 0.000000 26.061493 0.000000
							}
						}
						JOINT HairRightB
						{
							OFFSET -11.691200 29.289200 -8.738199
							CHANNELS 3 Xrotation Yrotation Zrotation
							End Site
							{
								OFFSET 0.000000 26.061493 0.000000
							}
						}
						JOINT HairRightC
						{
							OFFSET -14.792900 15.959702 2.901400
							CHANNELS 3 Xrotation Yrotation Zrotation
							End Site
							{
								OFFSET 0.000000 26.061493 0.000000
							}
						}
						JOINT HairRightD
						{
							OFFSET -15.174000 18.437195 -7.561900
							CHANNELS 3 Xrotation Yrotation Zrotation
							End Site
							{
								OFFSET 0.000000 26.061493 0.000000
							}
						}
						JOINT HairRightE
						{
							OFFSET -8.798200 17.914902 -18.322001
							CHANNELS 3 Xrotation Yrotation Zrotation
							End Site
							{
								OFFSET 0.000000 26.061493 0.000000
							}
						}
						JOINT HairRightF
						{
							OFFSET -10.275200 4.953506 -9.674099
							CHANNELS 3 Xrotation Yrotation Zrotation
							End Site
							{
								OFFSET 0.000000 26.061493 0.000000
							}
						}
					}
				}
				JOINT LeftShoulder
				{
					OFFSET 5.133500 7.341202 -1.867600
					CHANNELS 3 Xrotation Yrotation Zrotation
					JOINT LeftArm
					{
						OFFSET 8.072663 0.936867 -2.176600
						CHANNELS 3 Xrotation Yrotation Zrotation
						JOINT LeftForeArm
						{
							OFFSET 31.271999 0.000000 0.000000
							CHANNELS 3 Xrotation Yrotation Zrotation
							JOINT LeftHand
							{
								OFFSET 31.771030 0.000000 0.000000
								CHANNELS 3 Xrotation Yrotation Zrotation
								JOINT LeftHandThumb1
								{
									OFFSET 2.886520 -2.557846 4.416640
									CHANNELS 3 Xrotation Yrotation Zrotation
									JOINT LeftHandThumb2
									{
										OFFSET 2.371025 -1.368912 1.368911
										CHANNELS 3 Xrotation Yrotation Zrotation
										JOINT LeftHandThumb3
										{
											OFFSET 2.243378 -1.295212 1.295213
											CHANNELS 3 Xrotation Yrotation Zrotation
											End Site
											{
												OFFSET -0.332611 2.876945 0.020015
											}
										}
									}
								}
								JOINT LeftHandIndex1
								{
									OFFSET 8.568985 -0.641945 3.119977
									CHANNELS 3 Xrotation Yrotation Zrotation
									JOINT LeftHandIndex2
									{
										OFFSET 3.348503 0.000000 0.000000
										CHANNELS 3 Xrotation Yrotation Zrotation
										JOINT LeftHandIndex3
										{
											OFFSET 3.314552 0.000000 0.000000
											CHANNELS 3 Xrotation Yrotation Zrotation
											End Site
											{
												OFFSET -1.032898 3.075485 0.678796
											}
										}
									}
								}
								JOINT LeftHandMiddle1
								{
									OFFSET 8.124603 0.000000 0.000000
									CHANNELS 3 Xrotation Yrotation Zrotation
									JOINT LeftHandMiddle2
									{
										OFFSET 4.166275 0.000000 0.000000
										CHANNELS 3 Xrotation Yrotation Zrotation
										JOINT LeftHandMiddle3
										{
											OFFSET 3.018135 0.000000 0.000000
											CHANNELS 3 Xrotation Yrotation Zrotation
											End Site
											{
												OFFSET -1.032700 2.767982 0.617226
											}
										}
									}
								}
								JOINT LeftHandRing1
								{
									OFFSET 8.571686 -0.031357 -2.884048
									CHANNELS 3 Xrotation Yrotation Zrotation
									JOINT LeftHandRing2
									{
										OFFSET 3.671181 0.000000 0.000000
										CHANNELS 3 Xrotation Yrotation Zrotation
										JOINT LeftHandRing3
										{
											OFFSET 2.728851 0.000000 0.000000
											CHANNELS 3 Xrotation Yrotation Zrotation
											End Site
											{
												OFFSET -0.815796 2.539223 0.577389
											}
										}
									}
								}
								JOINT LeftHandPinky1
								{
									OFFSET 7.854515 -0.675232 -5.213020
									CHANNELS 3 Xrotation Yrotation Zrotation
									JOINT LeftHandPinky2
									{
										OFFSET 3.068596 0.000000 0.000000
										CHANNELS 3 Xrotation Yrotation Zrotation
										JOINT LeftHandPinky3
										{
											OFFSET 2.396042 0.000000 0.000000
											CHANNELS 3 Xrotation Yrotation Zrotation
											End Site
											{
												OFFSET -0.524597 2.267998 0.567429
											}
										}
									}
								}
							}
							JOINT LeftSleeve
							{
								OFFSET 19.684509 -0.200119 0.476146
								CHANNELS 3 Xrotation Yrotation Zrotation
								End Site
								{
									OFFSET -0.031017 25.731133 -0.002868
								}
							}
						}
					}
				}
				JOINT RightShoulder
				{
					OFFSET -4.395900 7.341202 -1.870200
					CHANNELS 3 Xrotation Yrotation Zrotation
					JOINT RightArm
					{
						OFFSET -8.071453 0.936867 -2.181100
						CHANNELS 3 Xrotation Yrotation Zrotation
						JOINT RightForeArm
						{
							OFFSET -31.272011 0.000000 0.000000
							CHANNELS 3 Xrotation Yrotation Zrotation
							JOINT RightHand
							{
								OFFSET -31.771019 0.000000 0.000000
								CHANNELS 3 Xrotation Yrotation Zrotation
								JOINT RightHandThumb1
								{
									OFFSET -2.886520 -2.557808 4.416626
									CHANNELS 3 Xrotation Yrotation Zrotation
									JOINT RightHandThumb2
									{
										OFFSET -2.371056 -1.368927 1.368928
										CHANNELS 3 Xrotation Yrotation Zrotation
										JOINT RightHandThumb3
										{
											OFFSET -2.243362 -1.295204 1.295206
											CHANNELS 3 Xrotation Yrotation Zrotation
											End Site
											{
												OFFSET 0.332642 2.876938 0.020047
											}
										}
									}
								}
								JOINT RightHandIndex1
								{
									OFFSET -8.568993 -0.641953 3.120017
									CHANNELS 3 Xrotation Yrotation Zrotation
									JOINT RightHandIndex2
									{
										OFFSET -3.348518 0.000000 0.000000
										CHANNELS 3 Xrotation Yrotation Zrotation
										JOINT RightHandIndex3
										{
											OFFSET -3.314552 0.000000 0.000000
											CHANNELS 3 Xrotation Yrotation Zrotation
											End Site
											{
												OFFSET 1.032898 3.075478 0.678804
											}
										}
									}
								}
								JOINT RightHandMiddle1
								{
									OFFSET -8.124588 0.000000 0.000000
									CHANNELS 3 Xrotation Yrotation Zrotation
									JOINT RightHandMiddle2
									{
										OFFSET -4.166275 0.000000 0.000000
										CHANNELS 3 Xrotation Yrotation Zrotation
										JOINT RightHandMiddle3
										{
											OFFSET -3.018097 0.000000 0.000000
											CHANNELS 3 Xrotation Yrotation Zrotation
											End Site
											{
												OFFSET 1.032700 2.767937 0.617197
											}
										}
									}
								}
								JOINT RightHandRing1
								{
									OFFSET -8.571747 -0.031349 -2.884061
									CHANNELS 3 Xrotation Yrotation Zrotation
									JOINT RightHandRing2
									{
										OFFSET -3.671204 0.000000 0.000000
										CHANNELS 3 Xrotation Yrotation Zrotation
										JOINT RightHandRing3
										{
											OFFSET -2.728874 0.000000 0.000000
											CHANNELS 3 Xrotation Yrotation Zrotation
											End Site
											{
												OFFSET 0.815804 2.539261 0.577413
											}
										}
									}
								}
								JOINT RightHandPinky1
								{
									OFFSET -7.854561 -0.675247 -5.212970
									CHANNELS 3 Xrotation Yrotation Zrotation
									JOINT RightHandPinky2
									{
										OFFSET -3.068550 0.000000 0.000000
										CHANNELS 3 Xrotation Yrotation Zrotation
										JOINT RightHandPinky3
										{
											OFFSET -2.395981 0.000000 0.000000
											CHANNELS 3 Xrotation Yrotation Zrotation
											End Site
											{
												OFFSET 0.524605 2.267952 0.567413
											}
										}
									}
								}
							}
							JOINT RightSleeve
							{
								OFFSET -19.684753 -0.200165 0.476065
								CHANNELS 3 Xrotation Yrotation Zrotation
								End Site
								{
									OFFSET 0.031342 25.731255 -0.002917
								}
							}
						}
					}
				}
				JOINT Hood
				{
					OFFSET 0.369700 14.447800 -5.317800
					CHANNELS 3 Xrotation Yrotation Zrotation
					JOINT Hood1
					{
						OFFSET 0.001700 -5.553802 -5.895100
						CHANNELS 3 Xrotation Yrotation Zrotation
						JOINT Hood2
						{
							OFFSET -0.000200 -8.380501 0.763600
							CHANNELS 3 Xrotation Yrotation Zrotation
							End Site
							{
								OFFSET 0.000000 8.415215 0.000000
							}
						}
					}
				}
				JOINT Left_Breast
				{
					OFFSET 5.682500 3.120102 3.188800
					CHANNELS 3 Xrotation Yrotation Zrotation
					End Site
					{
						OFFSET 0.000000 10.528564 0.000000
					}
				}
				JOINT Right_Breast
				{
					OFFSET -4.947600 3.120102 3.185900
					CHANNELS 3 Xrotation Yrotation Zrotation
					End Site
					{
						OFFSET 0.000000 10.528564 0.000000
					}
				}
				JOINT Whistle
				{
					OFFSET 0.368200 11.471298 0.095400
					CHANNELS 3 Xrotation Yrotation Zrotation
					JOINT Whistle1
					{
						OFFSET -0.002000 -6.349899 7.479800
						CHANNELS 3 Xrotation Yrotation Zrotation
						JOINT Whistle2
						{
							OFFSET -0.001300 -8.217598 4.717600
							CHANNELS 3 Xrotation Yrotation Zrotation
							End Site
							{
								OFFSET 0.000000 9.475479 0.000000
							}
						}
					}
				}
			}
		}
		JOINT Belly
		{
			OFFSET 0.212400 1.593002 3.163700
			CHANNELS 3 Xrotation Yrotation Zrotation
			End Site
			{
				OFFSET 0.000000 7.496635 0.000000
			}
		}
	}
	JOINT FitGrandmaFacialAnim_Joint
	{
		OFFSET 1.150000 -86.211197 -1.220100
		CHANNELS 3 Xrotation Yrotation Zrotation
		End Site
		{
			OFFSET 0.000000 31.666618 0.000000
		}
	}
}
MOTION
Frames: 4
Frame Time: 0.016667
4.618390 83.983871 6.766432 -0.189050 19.094205 6.223238 -0.000000 0.000000 0.000000 -16.511550 -6.640977 -4.806495 21.820163 0.539788 -4.596803 -5.663583 10.397687 0.788793 0.000000 -0.000000 -0.000000 0.000001 0.000000 -0.000000 -0.000002 -0.000000 0.000000 7.694012 -12.632458 -11.518341 24.008356 -21.290953 1.251717 -10.561024 -32.121703 23.813847 0.000000 -0.000002 0.000000 -0.000002 0.000000 0.000002 -0.000000 -0.000002 0.000000 0.075975 6.847262 10.785425 8.389053 6.747486 0.422351 0.206957 6.614091 0.368024 -13.227441 -19.480640 1.743817 5.179463 -17.358816 -2.364410 0.000000 -0.000000 -0.000001 0.000000 -0.000000 -0.000001 0.000000 -0.000000 -0.000001 0.000000 -0.000000 -0.000001 0.000000 -0.000000 -0.000001 0.000000 -0.000000 -0.000001 0.000000 -0.000000 -0.000001 0.000000 -0.000000 -0.000001 0.000000 -0.000000 -0.000001 0.000000 -0.000000 -0.000001 0.000000 -0.000000 -0.000001 0.000000 -0.000000 -0.000001 0.000000 -0.000000 -0.000001 0.000000 -0.000000 -0.000001 0.000000 -0.000000 -0.000001 0.000000 -0.000000 -0.000001 0.000000 -0.000000 -0.000001 0.000000 -0.000000 -0.000001 0.000000 -0.000000 -0.000001 -0.154066 9.312173 20.132355 -63.723391 6.157099 -31.462464 318.740804 -20.602962 373.295820 -53.062742 28.769754 30.735568 17.551616 -5.699217 -12.932287 10.850452 26.127710 8.644836 0.000001 0.000001 -0.000002 13.980909 1.201532 -55.004381 0.370798 1.161694 -65.441887 0.000000 0.000000 0.000001 7.504740 1.174476 -63.778517 1.807799 1.475653 -64.567930 -0.000001 0.000003 0.000001 8.574355 2.179149 -75.149006 -0.207644 1.009313 -57.855063 -0.000001 0.000002 0.000001 10.030079 13.637093 -84.750258 0.877089 0.062312 -64.595517 -0.000001 -0.000003 0.000002 0.000000 0.000001 -0.000000 5.429959 9.442465 5.676210 15.856557 -66.495259 55.369929 -0.249010 19.228904 37.981569 72.680494 -1.056077 4.143527 15.788556 -2.734537 -17.205807 -2.832810 -29.366590 12.741425 0.000002 0.000002 0.000000 3.460512 -3.220942 22.317867 -2.139077 -2.479467 34.133836 -0.000001 -0.000000 0.000001 -1.981736 -5.708783 28.547068 0.291809 -5.115389 57.918502 0.000001 -0.000000 -0.000003 -3.258539 -8.570297 35.335700 4.048563 -4.073927 65.874497 -0.000000 -0.000001 -0.000003 -5.950078 -17.426388 53.146808 10.727124 -2.565919 58.259430 0.000001 0.000000 0.000001 -0.000000 0.000001 0.000000 -0.000000 -0.000001 0.000001 -0.000000 -0.000001 0.000001 -0.000000 -0.000001 0.000001 -0.000000 -0.000001 0.000001 -0.000000 -0.000001 0.000001 0.000000 -0.000001 -0.000001 -0.000000 -0.000001 0.000001 -0.000000 -0.000001 0.000001 -0.000000 -0.000002 -0.000003 -0.000000 0.000000 0.000000 
4.799398 83.760765 6.935708 0.421810 23.871764 5.504192 -0.000000 0.000001 0.000000 -19.001641 -9.480572 -5.217981 23.101824 -0.473786 -4.909440 -5.474973 9.585065 0.977738 0.000000 -0.000000 -0.000000 0.000000 0.000001 -0.000000 -0.000002 0.000001 0.000001 9.290790 -17.100528 -9.855571 21.752863 -20.658390 0.875328 -10.836284 -30.586127 23.723603 -0.000000 0.000000 -0.000000 -0.000001 0.000000 0.000000 0.000000 -0.000000 -0.000000 -1.147847 7.169142 10.796407 7.340192 7.401394 -0.347060 0.687532 7.224093 -0.473158 -14.981687 -22.379393 3.474327 6.383156 -19.162915 -1.752119 -0.000000 -0.000000 0.000000 -0.000000 -0.000000 0.000000 -0.000000 -0.000000 0.000000 -0.000000 -0.000000 0.000000 -0.000000 -0.000000 0.000000 -0.000000 -0.000000 0.000000 -0.000000 -0.000000 0.000000 -0.000000 -0.000000 0.000000 -0.000000 -0.000000 0.000000 -0.000000 -0.000000 0.000000 -0.000000 -0.000000 0.000000 -0.000000 -0.000000 0.000000 -0.000000 -0.000000 0.000000 -0.000000 -0.000000 0.000000 -0.000000 -0.000000 0.000000 -0.000000 -0.000000 0.000000 -0.000000 -0.000000 0.000000 -0.000000 -0.000000 0.000000 -0.000000 -0.000000 0.000000 -0.958329 11.589818 16.054739 -66.492103 6.731959 -32.420914 309.931445 -20.341208 375.357171 -52.110122 22.279647 29.101838 17.551616 -5.699220 -12.932286 10.850447 26.127714 8.644836 -0.000000 0.000002 0.000001 13.980905 1.201532 -55.004381 0.370809 1.161695 -65.441887 -0.000001 0.000000 0.000001 7.504735 1.174474 -63.778510 1.807799 1.475656 -64.567930 -0.000002 0.000000 0.000000 8.574349 2.179146 -75.149006 -0.207642 1.009314 -57.855063 0.000000 0.000002 -0.000005 10.030082 13.637093 -84.750251 0.877092 0.062311 -64.595524 -0.000004 0.000003 -0.000000 0.000002 -0.000002 0.000001 5.228955 9.723381 6.084446 10.668878 -68.209418 51.667475 -0.500517 18.866880 38.212388 79.163607 0.444250 3.903830 15.788539 -2.734515 -17.205810 -2.817484 -29.403691 12.657777 -0.000000 0.000003 0.000000 3.434967 -3.235361 22.125529 -2.139764 -2.479405 33.905080 -0.000000 0.000000 0.000001 -1.981939 -5.708350 28.331287 0.291631 -5.115276 57.471616 0.000001 0.000001 -0.000002 -3.259463 -8.570113 34.996510 4.048364 -4.073839 65.399294 0.000003 -0.000001 0.000003 -6.000641 -17.333642 52.703881 10.727026 -2.565870 57.922893 -0.000000 -0.000001 0.000002 -0.000000 -0.000000 -0.000000 -0.000001 -0.000002 0.000001 -0.000001 -0.000002 0.000001 -0.000001 -0.000002 0.000001 -0.000001 -0.000002 0.000001 -0.000001 -0.000002 0.000001 -0.000001 -0.000002 -0.000000 -0.000001 -0.000001 -0.000000 -0.000001 -0.000001 -0.000000 -0.000000 0.000002 -0.000000 -0.000000 0.000001 0.000000 
4.946687 83.534271 7.058283 1.105678 28.014154 4.818481 0.000000 0.000001 -0.000000 -21.322146 -12.172394 -5.842218 24.152160 -1.015542 -5.157598 -5.235499 8.825971 1.020328 -0.000000 0.000000 -0.000000 0.000000 0.000001 -0.000000 0.000001 0.000001 0.000000 10.730967 -21.773624 -8.405588 19.639775 -19.129881 0.599856 -11.381551 -28.850958 23.276597 -0.000000 0.000001 0.000000 -0.000004 -0.000001 0.000000 0.000001 -0.000001 0.000001 -2.182886 7.515310 10.473977 6.409503 8.037289 -1.007987 1.207253 7.779484 -1.226573 -16.665346 -24.736633 4.961178 7.293001 -20.429629 -1.343610 -0.000000 -0.000001 -0.000001 -0.000000 -0.000001 -0.000001 -0.000000 -0.000001 -0.000001 -0.000000 -0.000001 -0.000001 -0.000000 -0.000001 -0.000001 -0.000000 -0.000001 -0.000001 -0.000000 -0.000001 -0.000001 -0.000000 -0.000001 -0.000001 -0.000000 -0.000001 -0.000001 -0.000000 -0.000001 -0.000001 -0.000000 -0.000001 -0.000001 -0.000000 -0.000001 -0.000001 -0.000000 -0.000001 -0.000001 -0.000000 -0.000001 -0.000001 -0.000000 -0.000001 -0.000001 -0.000000 -0.000001 -0.000001 -0.000000 -0.000001 -0.000001 -0.000000 -0.000001 -0.000001 -0.000000 -0.000001 -0.000001 -1.386120 13.153975 11.553618 -68.111411 6.494248 -33.152413 305.017260 -21.210143 374.224152 -51.626251 18.333295 27.120535 17.551612 -5.699224 -12.932284 10.850449 26.127712 8.644836 0.000001 0.000001 0.000002 13.980909 1.201531 -55.004381 0.370802 1.161698 -65.441887 0.000004 -0.000000 0.000001 7.504737 1.174477 -63.778517 1.807800 1.475657 -64.567937 0.000001 -0.000001 0.000002 8.574349 2.179156 -75.149006 -0.207645 1.009317 -57.855063 0.000003 0.000002 -0.000001 10.030079 13.637095 -84.750251 0.877088 0.062312 -64.595524 -0.000001 0.000002 -0.000000 -0.000003 0.000001 0.000002 5.052229 10.207470 6.320879 6.135802 -67.294534 48.041184 0.327641 18.396959 37.774546 83.008566 -0.368234 3.065862 15.788539 -2.734539 -17.205810 -2.808284 -29.432644 12.569099 -0.000001 0.000004 -0.000001 3.396515 -3.255158 21.917864 -2.140523 -2.479431 33.642233 0.000000 0.000000 -0.000002 -1.982217 -5.708101 28.088035 0.291437 -5.115130 56.979139 0.000001 0.000000 -0.000003 -3.260383 -8.569920 34.620094 4.048122 -4.073742 64.869121 -0.000000 0.000000 -0.000003 -6.047902 -17.233626 52.206435 10.726879 -2.565820 57.544829 -0.000001 -0.000000 -0.000000 -0.000000 0.000001 0.000000 0.000001 -0.000001 0.000001 0.000001 -0.000001 0.000001 0.000001 -0.000001 0.000001 0.000001 -0.000001 0.000001 0.000001 -0.000001 0.000001 0.000001 -0.000001 0.000000 0.000000 -0.000003 0.000000 0.000000 -0.000003 0.000000 0.000000 0.000000 -0.000001 0.000000 0.000001 -0.000000 
5.034163 83.341698 7.146900 1.762648 30.955295 4.288949 -0.000000 0.000000 -0.000000 -23.230913 -14.701741 -6.580564 24.807087 -1.736786 -5.374503 -5.047363 9.294172 0.963463 0.000000 -0.000001 0.000000 0.000000 0.000000 -0.000000 0.000001 -0.000001 -0.000000 11.761546 -25.025326 -7.236267 18.132764 -18.120053 0.428582 -11.851280 -27.678160 22.911105 -0.000000 -0.000004 0.000001 -0.000004 0.000000 0.000002 -0.000001 -0.000000 0.000000 -3.084703 7.874529 9.929910 5.554688 8.658316 -1.589357 1.738244 8.299239 -1.912930 -18.260205 -26.743042 6.305358 8.037610 -21.371754 -1.064210 0.000000 0.000001 0.000001 0.000000 0.000001 0.000001 0.000000 0.000001 0.000001 0.000000 0.000001 0.000001 0.000000 0.000001 0.000001 0.000000 0.000001 0.000001 0.000000 0.000001 0.000001 0.000000 0.000001 0.000001 0.000000 0.000001 0.000001 0.000000 0.000001 0.000001 0.000000 0.000001 0.000001 0.000000 0.000001 0.000001 0.000000 0.000001 0.000001 0.000000 0.000001 0.000001 0.000000 0.000001 0.000001 0.000000 0.000001 0.000001 0.000000 0.000001 0.000001 0.000000 0.000001 0.000001 0.000000 0.000001 0.000001 -1.577759 14.389624 6.973790 -69.478009 6.137859 -33.977975 302.849440 -21.535491 372.111657 -50.465474 13.830809 25.019695 17.551612 -5.699222 -12.932286 10.850452 26.127716 8.644836 0.000003 -0.000004 0.000004 13.980908 1.201531 -55.004381 0.370798 1.161699 -65.441887 -0.000002 -0.000001 -0.000001 7.504734 1.174475 -63.778517 1.807794 1.475655 -64.567937 0.000000 -0.000000 -0.000001 8.574348 2.179145 -75.148999 -0.207645 1.009313 -57.855056 0.000000 0.000002 -0.000001 10.030077 13.637091 -84.750251 0.877084 0.062311 -64.595524 -0.000004 -0.000000 -0.000001 -0.000000 0.000001 -0.000003 4.894001 10.841099 6.313587 4.878274 -64.300883 47.139128 1.435479 17.723762 37.243526 83.415816 -3.115068 2.073291 15.788525 -2.734530 -17.205810 -2.805496 -29.452783 12.475387 -0.000000 -0.000001 0.000000 3.344303 -3.280440 21.694675 -2.141381 -2.479330 33.343901 0.000000 0.000001 -0.000000 -1.982578 -5.707897 27.816420 0.291213 -5.114996 56.439984 0.000000 -0.000000 -0.000002 -3.261272 -8.569703 34.205557 4.047801 -4.073570 64.282428 0.000001 0.000000 -0.000001 -6.090986 -17.126383 51.652920 10.726714 -2.565655 57.123843 -0.000001 -0.000000 -0.000001 0.000002 0.000000 0.000000 -0.000000 -0.000002 0.000001 -0.000000 -0.000002 0.000001 -0.000000 -0.000002 0.000001 -0.000000 -0.000002 0.000001 -0.000000 -0.000002 0.000001 -0.000000 -0.000002 0.000001 -0.000001 0.000001 0.000001 -0.000001 0.000001 0.000001 0.000000 0.000001 0.000000 -0.000000 0.000000 -0.000000 
